<?xml version="1.0" encoding="UTF-8"?>
<svg version="1.1" xmlns="http://www.w3.org/2000/svg" width="584" height="427">
<path d="M0 0 C1.72530332 -0.00270206 3.45060515 -0.00659038 5.17590332 -0.01159668 C8.77317963 -0.01745821 12.37005577 -0.00903787 15.96728516 0.00976562 C20.5464998 0.03255335 25.12477626 0.01941213 29.7039566 -0.00452423 C33.26107679 -0.01907345 36.81797958 -0.01433477 40.37510681 -0.00401306 C42.06217056 -0.00137089 43.74925495 -0.00452569 45.43629456 -0.01393127 C61.48213663 -0.08378802 75.26591973 2.95238376 87.28125 14.40625 C92.04272929 19.43706549 95.7076009 24.95336171 97.96875 31.53125 C100.91354254 30.8838427 103.45692167 29.92846089 106.1796875 28.640625 C139.09143393 13.51857587 172.49134619 11.73851186 206.6640625 23.83984375 C219.97508513 29.19154191 232.14307235 37.16252045 242.96875 46.53125 C244.21205078 47.57539062 244.21205078 47.57539062 245.48046875 48.640625 C251.7427201 54.04936889 256.95956486 59.95552195 261.96875 66.53125 C262.57460938 67.32144531 263.18046875 68.11164063 263.8046875 68.92578125 C283.09001458 95.23585416 288.12475879 124.61817119 288.11401367 156.56201172 C288.11701155 158.35385202 288.12041551 160.14569168 288.12419128 161.93753052 C288.13296997 166.77231997 288.13536675 171.60709168 288.13600707 176.44188833 C288.13672088 179.46996968 288.1388614 182.49804661 288.14150429 185.52612686 C288.15073628 196.11100803 288.15484173 206.69587666 288.15405273 217.28076172 C288.153452 227.11461701 288.16400849 236.94841745 288.1797964 246.78225887 C288.19290945 255.25483896 288.19823508 263.72740119 288.19759732 272.19999135 C288.19734352 277.2472681 288.20012995 282.29449599 288.21077538 287.34176254 C288.22052041 292.09100465 288.22049203 296.8401518 288.21325874 301.58939743 C288.21222093 303.32186524 288.21452739 305.05433916 288.2206192 306.78679657 C288.31085575 334.25014841 282.20832301 357.7380164 262.84375 378.15625 C245.63731581 394.81607095 223.27072194 402.97972177 199.48046875 402.67578125 C175.41548531 401.68534255 154.3732135 391.99129293 137.69018555 374.49023438 C131.48195572 367.42530229 126.90685026 359.17530409 122.40625 350.96875 C121.17721328 348.75123006 119.9480428 346.53378424 118.71875 344.31640625 C117.78675781 342.62862061 117.78675781 342.62862061 116.8359375 340.90673828 C113.87943811 335.56199971 110.89282213 330.23422453 107.90625 324.90625 C107.03806641 323.35562866 107.03806641 323.35562866 106.15234375 321.77368164 C102.25167892 314.80953326 98.33475863 307.85472547 94.40625 300.90625 C93.88321289 299.98030029 93.36017578 299.05435059 92.82128906 298.1003418 C89.9816274 293.07676187 87.12994147 288.06034829 84.265625 283.05078125 C83.66177979 281.99133301 83.05793457 280.93188477 82.43579102 279.84033203 C81.27054675 277.79631869 80.10189109 275.75424544 78.92944336 273.71435547 C78.41003174 272.80186035 77.89062012 271.88936523 77.35546875 270.94921875 C76.89358154 270.14250732 76.43169434 269.3357959 75.95581055 268.50463867 C74.96875 266.53125 74.96875 266.53125 74.96875 264.53125 C39.65875 264.53125 4.34875 264.53125 -32.03125 264.53125 C-32.69125 266.51125 -33.35125 268.49125 -34.03125 270.53125 C-34.83335884 272.1349774 -35.68346411 273.71553574 -36.578125 275.26953125 C-37.08601562 276.15898437 -37.59390625 277.0484375 -38.1171875 277.96484375 C-38.66632813 278.91488281 -39.21546875 279.86492187 -39.78125 280.84375 C-40.96411286 282.91243392 -42.1463843 284.98145609 -43.328125 287.05078125 C-43.93978516 288.11893066 -44.55144531 289.18708008 -45.18164062 290.28759766 C-48.16381722 295.51742847 -51.09651117 300.7747007 -54.03125 306.03125 C-59.06273911 315.02833506 -64.10753058 324.01770297 -69.19824219 332.98144531 C-71.97204605 337.8681406 -74.71710025 342.76787436 -77.41796875 347.6953125 C-88.18259192 367.24233838 -88.18259192 367.24233838 -96.03125 375.53125 C-96.62550781 376.21445312 -97.21976563 376.89765625 -97.83203125 377.6015625 C-112.09307808 393.175725 -133.20061522 401.74232637 -154.01171875 402.84765625 C-176.70600362 403.59083635 -197.89340822 397.94607717 -215.03125 382.53125 C-215.99933594 381.7578125 -216.96742188 380.984375 -217.96484375 380.1875 C-233.74461047 367.05221999 -243.1060439 345.60009675 -245.03125 325.53125 C-245.12002314 322.84766557 -245.17089301 320.19090728 -245.16496277 317.50843811 C-245.16722833 316.74180593 -245.16949388 315.97517376 -245.17182809 315.1853103 C-245.17811556 312.63792881 -245.17734211 310.09060124 -245.17651367 307.54321289 C-245.17950858 305.7075697 -245.18291188 303.87192714 -245.18669128 302.0362854 C-245.19550513 297.06263243 -245.1978684 292.08899668 -245.19850707 287.11533666 C-245.19921946 284.00081852 -245.20135743 280.88630471 -245.20400429 277.77178764 C-245.21325152 266.88520914 -245.21734026 255.99864285 -245.21655273 245.11206055 C-245.21595324 235.00001071 -245.22648151 224.88801444 -245.2422964 214.77597815 C-245.25542462 206.06818966 -245.26073437 197.36041855 -245.26009732 188.65262026 C-245.25984374 183.46378377 -245.26261701 178.27499483 -245.27327538 173.08616829 C-245.28304475 168.19661809 -245.28297576 163.30716003 -245.27575874 158.41760635 C-245.27472354 156.63641282 -245.27701135 154.85521328 -245.2831192 153.07402992 C-245.33035969 138.32619724 -244.76415752 123.51532332 -240.53125 109.28125 C-240.27553223 108.41411377 -240.01981445 107.54697754 -239.75634766 106.65356445 C-234.50927482 89.75798991 -226.41118405 75.02307611 -215.03125 61.53125 C-214.55993652 60.95971191 -214.08862305 60.38817383 -213.60302734 59.79931641 C-193.31031232 35.42688337 -163.70523057 20.20150668 -132.46875 15.78125 C-107.56711131 13.82162008 -79.24745203 17.38711531 -58.03125 31.53125 C-57.04125 31.53125 -56.05125 31.53125 -55.03125 31.53125 C-54.77472656 30.92539062 -54.51820313 30.31953125 -54.25390625 29.6953125 C-48.24365075 16.54155467 -38.43623277 7.60744098 -24.9543457 2.46630859 C-16.69027607 -0.23786177 -8.60080066 -0.04795117 0 0 Z M-22.84375 39.84375 C-24.2675099 43.06594345 -24.68887151 46.0389894 -25.03125 49.53125 C-9.44629103 56.93016992 5.54495856 59.92610037 22.78125 59.84375 C24.61937256 59.83637817 24.61937256 59.83637817 26.49462891 59.82885742 C40.98458022 59.64185937 53.51707406 56.84886565 66.96875 51.53125 C67.34570208 46.81934898 67.43189703 43.45754407 65.28125 39.15625 C62.04171751 35.47894284 59.57185806 33.71775795 54.63648987 33.14356995 C53.368853 33.13816696 52.10121613 33.13276398 50.79516602 33.12719727 C49.74051147 33.11690239 49.74051147 33.11690239 48.66455078 33.10639954 C46.35037798 33.08816317 44.03688519 33.09196432 41.72265625 33.09765625 C40.10749594 33.09309281 38.49233757 33.08778675 36.87718201 33.08177185 C33.49543357 33.07284691 30.11392137 33.07525662 26.73217773 33.08520508 C22.40665442 33.09669237 18.08194777 33.07648447 13.75653172 33.04728794 C10.4218379 33.02890754 7.08733912 33.02922205 3.75260735 33.03492546 C2.15826205 33.03507846 0.56390335 33.02905172 -1.0303936 33.01663399 C-3.26353477 33.00169059 -5.49517601 33.01242349 -7.72827148 33.02954102 C-9.63092018 33.02979027 -9.63092018 33.02979027 -11.57200623 33.03004456 C-16.56699447 33.75376207 -19.74987495 35.89639218 -22.84375 39.84375 Z M-190.03125 82.53125 C-202.60611828 97.87489662 -211.19486645 117.74721706 -211.17169189 137.70233154 C-211.17466302 138.5089458 -211.17763414 139.31556006 -211.1806953 140.14661717 C-211.18934495 142.84091947 -211.19088737 145.53517713 -211.19238281 148.22949219 C-211.1970136 150.16486709 -211.20203862 152.10024108 -211.20742798 154.03561401 C-211.22052822 159.28782843 -211.22699222 164.54003007 -211.23143864 169.79225826 C-211.23437301 173.07589578 -211.23847849 176.35952982 -211.24294281 179.64316559 C-211.25661106 189.92356879 -211.26628119 200.20396405 -211.2701447 210.48437572 C-211.27462488 222.33941204 -211.29217381 234.19433303 -211.3211453 246.04933429 C-211.34278016 255.22151256 -211.35284994 264.39365843 -211.35418582 273.56586194 C-211.35523248 279.04013587 -211.36111101 284.51430128 -211.37900543 289.98854828 C-211.39551743 295.13990562 -211.39762639 300.29107324 -211.38886642 305.44244766 C-211.38809775 307.32817468 -211.39241635 309.21391204 -211.40232468 311.09961319 C-211.56614266 324.59886522 -211.56614266 324.59886522 -208.03125 337.53125 C-207.41056641 339.03171875 -207.41056641 339.03171875 -206.77734375 340.5625 C-201.11402686 351.24672768 -192.93095679 359.26250956 -182.03125 364.53125 C-181.19851562 364.94375 -180.36578125 365.35625 -179.5078125 365.78125 C-167.49553694 370.73760439 -150.58231749 370.71487678 -138.5625 365.79296875 C-134.18617714 363.6115609 -130.04535797 361.33226592 -126.03125 358.53125 C-125.34417969 358.05300781 -124.65710938 357.57476562 -123.94921875 357.08203125 C-111.52721061 347.35513336 -104.78827316 329.8833582 -97.53125 316.31787109 C-95.57198142 312.67804499 -93.56602205 309.06679942 -91.53125 305.46875 C-91.18143066 304.84991943 -90.83161133 304.23108887 -90.47119141 303.59350586 C-89.32615292 301.57183742 -88.17875552 299.55151909 -87.03125 297.53125 C-84.98790878 293.92803035 -82.94664832 290.32363686 -80.90625 286.71875 C-80.36258789 285.7589624 -79.81892578 284.7991748 -79.25878906 283.81030273 C-76.20770173 278.41443097 -73.17913217 273.00677487 -70.1796875 267.58203125 C-69.8545517 266.99447556 -69.52941589 266.40691986 -69.19442749 265.80155945 C-67.62449005 262.96369684 -66.05757605 260.12423925 -64.49560547 257.28198242 C-63.34655959 255.20194497 -62.16321724 253.14038279 -60.94197083 251.10189819 C-59.54029387 248.65904616 -58.62663588 246.36045919 -57.83918762 243.66062927 C-56.21551727 238.96782501 -54.2563699 235.31772927 -50.03125 232.53125 C-40.48226179 229.82315934 -29.87738993 230.74045358 -20.04091525 231.01034093 C-16.02944627 231.10449942 -12.01778983 231.11295088 -8.00538635 231.13072205 C-0.41801941 231.1772362 7.16608237 231.30016063 14.75201505 231.45096439 C23.39246687 231.61897991 32.03307977 231.70118435 40.67475998 231.77639592 C58.44127057 231.93293597 76.2047473 232.19654413 93.96875 232.53125 C96.05190118 236.21434517 98.1346296 239.89767924 100.21728516 243.58105469 C100.80361221 244.61769257 101.38993927 245.65433044 101.99403381 246.72238159 C106.14161229 254.05843037 110.26155694 261.408591 114.34375 268.78125 C114.96040527 269.89274414 115.57706055 271.00423828 116.21240234 272.14941406 C118.77121089 276.76161948 121.32790943 281.37499332 123.88476562 285.98828125 C131.03072507 298.87874538 138.17856118 311.76747131 145.47045898 324.57617188 C147.83752402 328.73626755 150.18263928 332.90048659 152.42578125 337.12890625 C160.39788123 352.07595011 169.95833314 362.57490072 186.00390625 368.6875 C199.90211955 372.72789579 214.71382101 371.40033184 227.59375 364.90625 C240.44525407 357.34327854 249.4960588 346.48703235 253.32988548 331.96144295 C254.64876207 324.8801275 254.42672315 317.67282886 254.43286133 310.49389648 C254.44517265 308.68898148 254.45874731 306.88407472 254.47348022 305.07917786 C254.50945255 300.2027474 254.52707683 295.32641141 254.54072404 290.44987369 C254.55764447 285.32265633 254.58970264 280.19552996 254.61955261 275.06837463 C254.66735768 266.45307745 254.70337944 257.83779254 254.73217773 249.22241211 C254.76545861 239.30392643 254.81648272 229.38565586 254.87733442 219.46730369 C254.93578042 209.88376311 254.98224187 200.30020032 255.02313805 190.7165699 C255.04060987 186.65922221 255.06201983 182.60192478 255.08670998 178.54461479 C255.11529649 173.74862175 255.13322491 168.95269576 255.14344406 164.15662956 C255.14875839 162.41131655 255.15748303 160.66600947 255.17016029 158.92073441 C255.23140225 150.1798516 255.02995844 141.55990279 254.09403992 132.8629303 C254.01785456 132.14638509 253.94166921 131.42983989 253.86317521 130.69158119 C251.76925918 113.22513156 243.88697591 97.16313206 232.96875 83.53125 C232.37707031 82.77457031 231.78539062 82.01789063 231.17578125 81.23828125 C215.53775103 62.39928962 191.83542673 51.37884641 167.74609375 48.75 C144.69468051 47.41506811 124.12159628 54.77730147 105.1484375 67.45703125 C98.64378042 71.70024121 91.71859177 74.75533136 84.48828125 77.5390625 C82.61096204 78.27834789 80.75998376 79.08520321 78.92578125 79.92578125 C73.73272085 82.16107028 68.28193962 83.58415357 62.84375 85.09375 C61.72444092 85.4045752 60.60513184 85.71540039 59.4519043 86.03564453 C51.97047324 88.07331212 44.70379655 89.81465168 36.96875 90.53125 C35.91945313 90.63953125 34.87015625 90.7478125 33.7890625 90.859375 C-2.67013138 94.05902712 -32.84287372 85.32565829 -63.66235352 66.01025391 C-106.15562832 39.4798758 -156.4402176 43.48776016 -190.03125 82.53125 Z " fill="#DFDFDF" transform="translate(278.03125,11.46875)"/>
<path d="M0 0 C0.79664063 0.42023438 1.59328125 0.84046875 2.4140625 1.2734375 C16.7462971 9.30481355 27.22383726 21.56072147 32.29296875 37.27734375 C37.15082489 55.98411573 34.76131736 72.58542363 25.10595703 89.18994141 C16.51478745 103.25063264 3.01594096 112.33565594 -12.625 117.10546875 C-25.51603912 120.17649357 -40.88567009 119.32296314 -53 114 C-53.99773437 113.59910156 -54.99546875 113.19820313 -56.0234375 112.78515625 C-72.80361683 105.34407416 -83.09422537 91.02344986 -90.04296875 74.5234375 C-94.98066135 59.91899461 -92.97562473 42.84921723 -86.6796875 29.12109375 C-78.56904234 13.18788646 -65.90513671 2.00729232 -49 -4 C-32.42949045 -8.49139068 -15.42164135 -8.42743969 0 0 Z M-53 37 C-58.44058277 44.9098747 -59.90816469 52.4706663 -59 62 C-56.91854338 70.19499206 -52.71529156 75.960216 -46.25 81.25 C-37.63401682 85.88937556 -29.45770021 87.29709396 -20 84.875 C-11.20531191 82.00657865 -5.05097588 76.15669767 -0.75 68.0625 C2.37525769 60.63381208 2.43176434 51.61714194 -0.5625 44.125 C-5.12032827 35.58105712 -10.99352184 30.51509114 -20 27 C-32.12686968 23.33373707 -44.81947448 27.52097836 -53 37 Z " fill="#E0E0E0" transform="translate(188,111)"/>
<path d="M0 0 C0.83144531 0.45503906 1.66289062 0.91007812 2.51953125 1.37890625 C14.4724803 8.24244371 22.05506142 16.75873437 28.3125 29 C28.65015381 29.65210449 28.98780762 30.30420898 29.33569336 30.97607422 C36.23449545 44.99706485 35.78173819 61.94887368 31.25390625 76.63671875 C27.61628498 86.39370291 22.32371409 93.65107519 15 101 C14.38511719 101.63808594 13.77023437 102.27617187 13.13671875 102.93359375 C1.7974628 113.83579059 -14.54408961 118.98269215 -30 119 C-44.77719854 118.14357648 -57.00803263 113.59327775 -69 105 C-69.64582031 104.53980469 -70.29164063 104.07960938 -70.95703125 103.60546875 C-81.88556283 95.04519683 -89.68399716 80.57485259 -92 67 C-92.2883118 63.57803002 -92.33431596 60.18289652 -92.3125 56.75 C-92.30686035 55.82195557 -92.3012207 54.89391113 -92.29541016 53.93774414 C-91.9967605 37.02264137 -85.63987323 23.26445179 -74 11 C-54.5282774 -7.71393982 -24.09966839 -13.23031703 0 0 Z M-53 37 C-59.07749512 44.83677002 -59.70731216 52.36432129 -59 62 C-57.81443474 69.59466063 -53.73592676 75.01727574 -48 80 C-40.0438067 85.07842126 -31.97097474 87.22554233 -22.578125 85.57421875 C-13.67598477 83.3210373 -7.37066735 78.65647093 -2.5 70.875 C1.44763603 64.01049957 2.0437698 56.3603771 0.5390625 48.6328125 C-2.0301142 39.89761173 -7.06978596 33.91719794 -14.78125 29.1875 C-28.0942435 22.06223587 -43.11854348 26.27756845 -53 37 Z " fill="#DCDCDC" transform="translate(469,111)"/>
<path d="M0 0 C2.79872437 2.52788007 4.45773019 4.20411134 5 8 C4.01 8.495 4.01 8.495 3 9 C3 8.34 3 7.68 3 7 C2.34 7 1.68 7 1 7 C0.67 4.69 0.34 2.38 0 0 Z " fill="#D6D6D6" transform="translate(409,311)"/>
</svg>
